<?xml version="1.0" encoding="UTF-8"?>
<svg xmlns="http://www.w3.org/2000/svg" version="1.1" xmlns:xlink="http://www.w3.org/1999/xlink" viewBox="0 0 149.9 133.5">
  <defs>
    <style>
      .cls-1 {
        fill: #0053af;
      }

      .cls-2 {
        mask: url(#mask);
      }

      .cls-3 {
        stroke: url(#linear-gradient-7);
        stroke-miterlimit: 4;
        stroke-width: 1.2px;
      }

      .cls-3, .cls-4, .cls-5 {
        fill: none;
      }

      .cls-4 {
        stroke: url(#linear-gradient-9);
        stroke-linecap: round;
        stroke-miterlimit: 4;
        stroke-width: 2.6px;
      }

      .cls-6 {
        fill: url(#linear-gradient-4);
      }

      .cls-7 {
        fill: url(#linear-gradient-2);
      }

      .cls-7, .cls-8, .cls-9 {
        fill-opacity: .5;
      }

      .cls-8 {
        fill: url(#linear-gradient);
      }

      .cls-10 {
        fill: url(#linear-gradient-5);
      }

      .cls-11 {
        fill: url(#linear-gradient-8);
      }

      .cls-9 {
        fill: url(#linear-gradient-3);
      }

      .cls-12 {
        fill: url(#linear-gradient-6);
      }

      .cls-13 {
        clip-path: url(#clippath);
      }
    </style>
    <mask id="mask" x="-182.4" y="-10.7" width="343" height="156" maskUnits="userSpaceOnUse">
      <g id="mask0_21_212">
        <rect class="cls-1" x="-182.4" y="-10.7" width="343" height="156" rx="16" ry="16"/>
      </g>
    </mask>
    <linearGradient id="linear-gradient" x1="17.7" y1="42.2" x2="2.4" y2="41" gradientTransform="translate(0 145.8) scale(1 -1)" gradientUnits="userSpaceOnUse">
      <stop offset="0" stop-color="#ff9800"/>
      <stop offset="1" stop-color="#ffeacb"/>
    </linearGradient>
    <linearGradient id="linear-gradient-2" x1="129.7" y1="22.2" x2="114.4" y2="21" gradientTransform="translate(0 145.8) scale(1 -1)" gradientUnits="userSpaceOnUse">
      <stop offset="0" stop-color="#ff9800"/>
      <stop offset="1" stop-color="#ffe4bd"/>
    </linearGradient>
    <linearGradient id="linear-gradient-3" x1="149.3" y1="91.1" x2="38.3" y2="82.6" gradientTransform="translate(0 145.8) scale(1 -1)" gradientUnits="userSpaceOnUse">
      <stop offset="0" stop-color="#ff9800" stop-opacity=".7"/>
      <stop offset="1" stop-color="#ffe2b8"/>
    </linearGradient>
    <clipPath id="clippath">
      <rect class="cls-5" x="1.1" y="36.9" width="103.6" height="69.7" transform="translate(-19.2 124) rotate(-89.5)"/>
    </clipPath>
    <linearGradient id="linear-gradient-4" x1="31.6" y1="68.4" x2="84.4" y2="112.8" gradientTransform="translate(0 145.8) scale(1 -1)" gradientUnits="userSpaceOnUse">
      <stop offset="0" stop-color="#ff9800" stop-opacity=".6"/>
      <stop offset="1" stop-color="#ffb74d" stop-opacity=".8"/>
    </linearGradient>
    <linearGradient id="linear-gradient-5" x1="48.7" y1="36.4" x2="76.9" y2="40.7" gradientTransform="translate(0 145.8) scale(1 -1)" gradientUnits="userSpaceOnUse">
      <stop offset="0" stop-color="#ff9800" stop-opacity=".6"/>
      <stop offset="1" stop-color="#ff9800" stop-opacity=".5"/>
    </linearGradient>
    <linearGradient id="linear-gradient-6" x1="-1639.6" y1="341.8" x2="-1601.8" y2="255" gradientTransform="translate(-1560.9 -59.3) rotate(-164.9) skewX(.2)" gradientUnits="userSpaceOnUse">
      <stop offset="0" stop-color="#ff9800" stop-opacity=".6"/>
      <stop offset="1" stop-color="#ff9800" stop-opacity=".4"/>
    </linearGradient>
    <linearGradient id="linear-gradient-7" x1="-1622.8" y1="352.1" x2="-1622.8" y2="248.5" gradientTransform="translate(-1562.2 -59.5) rotate(-164.9) skewX(.2)" gradientUnits="userSpaceOnUse">
      <stop offset="0" stop-color="#fff"/>
      <stop offset="1" stop-color="#fff" stop-opacity=".2"/>
    </linearGradient>
    <linearGradient id="linear-gradient-8" x1="-80.9" y1="348.1" x2="-80.9" y2="328.1" gradientTransform="translate(66.7 383.9) rotate(14.8) scale(1 -1) skewX(-.2)" gradientUnits="userSpaceOnUse">
      <stop offset="0" stop-color="#f4f3f8"/>
      <stop offset="1" stop-color="#faf9fb" stop-opacity=".5"/>
    </linearGradient>
    <linearGradient id="linear-gradient-9" x1="-1142.5" y1="-172.2" x2="-1039.9" y2="-172.2" gradientTransform="translate(211.8 -1023.3) rotate(-75) scale(1 -1) skewX(.2)" gradientUnits="userSpaceOnUse">
      <stop offset="0" stop-color="#fff" stop-opacity=".7"/>
      <stop offset="1" stop-color="#fff" stop-opacity="0"/>
    </linearGradient>
  </defs>
  <!-- Generator: Adobe Illustrator 28.6.0, SVG Export Plug-In . SVG Version: 1.2.0 Build 709)  -->
  <g>
    <g id="Layer_2">
      <g class="cls-2">
        <g>
          <circle class="cls-8" cx="9.6" cy="104.3" r="8"/>
          <circle class="cls-7" cx="121.6" cy="124.3" r="8"/>
        </g>
      </g>
      <circle class="cls-9" cx="90.6" cy="59.3" r="58"/>
      <g class="cls-13">
        <g>
          <path class="cls-6" d="M24,81.6l.4-49.3c0-7,5.7-12.6,12.7-12.6l44.6.4c7,0,12.5,5.8,12.5,12.8l-.4,49.3-69.7-.6Z"/>
          <path class="cls-10" d="M93.6,94.4v16.8c-.2,7-5.9,12.6-12.8,12.6l-44.6-.4c-7,0-12.5-5.8-12.5-12.8v-16.8c.1,0,69.9.6,69.9.6ZM58.8,113.6c3.3,0,6.1-2.7,6.1-6,0-3.3-2.6-6.1-6-6.1-3.3,0-6.1,2.7-6.1,6,0,3.4,2.6,6.1,6,6.1Z"/>
        </g>
      </g>
      <g>
        <path class="cls-12" d="M126.2,30L64,13.3c-3.4-.9-7,1.1-7.9,4.6l-23.3,87.6c-.9,3.4,1.1,7,4.6,7.9l62.2,16.7c3.4.9,7-1.1,7.9-4.6l23.3-87.6c.9-3.4-1.1-7-4.6-7.9Z"/>
        <path class="cls-3" d="M126,30.6L63.8,13.9c-3.1-.8-6.3,1-7.2,4.2l-23.3,87.6c-.8,3.1,1,6.4,4.2,7.2l62.2,16.7c3.1.8,6.3-1,7.2-4.2l23.3-87.6c.8-3.1-1-6.4-4.2-7.2Z"/>
      </g>
      <path class="cls-11" d="M71.6,25.2l9.1,2.4c2.2.6,3.6,2.9,3,5.1l-2.9,11.3c-.6,2.2-2.9,3.6-5.1,3l-9.1-2.4c-2.2-.6-3.6-2.9-3-5.1l2.9-11.3c.6-2.2,2.9-3.6,5.1-3Z"/>
      <line class="cls-4" x1="85.1" y1="115.5" x2="105.7" y2="38.6"/>
    </g>
  </g>
</svg>